# xmcd
#
# Track frame offsets: 
#        183
#        12045
#        24533
#        52408
#        70008
#        81458
#        94720
#        103370
#        118133
#        131158
#        143720
#        156158
#        163495
#        174858
#        186220
#        198945
#        215545
#        233170
#        244658
#        256395
#        268095
#        280283
#        295570
#        307245
#        322058
#
# Disc length: 4449 seconds
#
# Revision: 3
# Processed by: cddbd v1.5.2PL0 Copyright (c) Steve Scherf et al.
# Submitted via: ExactAudioCopy v0.99pb3
#
DISCID=81115f19
DTITLE=Various. [The World of Soul] - Sex Machine. Disc 4.
DYEAR=1992
DGENRE=Soul
TTITLE0=Sam and Dave - I Thank You
TTITLE1=Sam Cooke - You Send Me
TTITLE2=James Brown - Sex Machine
TTITLE3=Barbara Mason - Yes, I'm Ready
TTITLE4=Brook Benton - The Same One
TTITLE5=Gene Chandler - Nothing Can Stop Me
TTITLE6=The Isley Brothers - I'm Laughing To Keep From Crying
TTITLE7=James Brown - Get On The Good Foot
TTITLE8=Fontella Bass - Rescue Me
TTITLE9=Jerry Butler - He Will Break Your Heart
TTITLE10=The Dixie Cups - Chapel Of Love
TTITLE11=Joe Tex - Competition
TTITLE12=Percy Sledge - (Sitting On) The Dock Of The Bay
TTITLE13=Ike and Tina Turner - Poor Fool
TTITLE14=Ramsey Lewis - Dancing In The Street
TTITLE15=Solomon Burke - Hold On, I'm Coming
TTITLE16=The Dells - Oh, What A Night
TTITLE17=Etta James - I'd Rather Go Blind
TTITLE18=The Drifters - Under The Boardwalk
TTITLE19=The Tams - What Kind Of Fool Do You Think I Am
TTITLE20=Billy Stewart - Summertime
TTITLE21=Chuck Jackson - Any Day Now
TTITLE22=Brook Benton - Kiddio
TTITLE23=George McGrae - Rock Your Baby
TTITLE24=James Brown - Gonna Have A Funky Good Time
EXTD=0400852\n[This collection contain 4 CD's. I have corrected the ma
EXTD=il title and the disc title]
EXTT0=
EXTT1=
EXTT2=
EXTT3=
EXTT4=
EXTT5=
EXTT6=
EXTT7=
EXTT8=
EXTT9=
EXTT10=
EXTT11=
EXTT12=
EXTT13=
EXTT14=
EXTT15=
EXTT16=
EXTT17=
EXTT18=
EXTT19=
EXTT20=
EXTT21=
EXTT22=
EXTT23=
EXTT24=
PLAYORDER=
